<!DOCTYPE svg PUBLIC "-//W3C//DTD SVG 1.1//EN" "http://www.w3.org/Graphics/SVG/1.1/DTD/svg11.dtd">

<!-- Uploaded to: SVG Repo, www.svgrepo.com, Transformed by: SVG Repo Mixer Tools -->
<svg width="256px" height="256px" viewBox="-2.4 -2.4 28.80 28.80" xmlns="http://www.w3.org/2000/svg" fill="none" stroke="#000000">

<g id="SVGRepo_bgCarrier" stroke-width="0">

<!-- <rect x="-2.4" y="-2.4" width="28.80" height="28.80" rx="14.4" fill="none" strokewidth="0"/> -->

</g>

<g id="SVGRepo_tracerCarrier" stroke-linecap="round" stroke-linejoin="round"/>

<g id="SVGRepo_iconCarrier"> <g clip-path="url(#a)"> <path fill="#000000" d="m21.048 8.868 1.402-.318-.318 1.402a8 8 0 0 1-2.145 3.89L17.5 16.328l-.015.015c1.71 1.709-.702 4.935-1.414 5.628l-1.4-2.814-2.828-2.829L9 14.9c.722-.703 4.001-3.1 5.686-1.415l2.472-2.472a8 8 0 0 1 3.89-2.145z"/> <path stroke="#000000" stroke-linecap="round" stroke-linejoin="round" stroke-width="2" d="m14.672 19.157-2.829-2.829m2.829 2.829 1.4 2.814c.711-.693 3.122-3.919 1.413-5.628m-2.813 2.814 2.813-2.814m-5.642-.015 2.829-2.828.014-.015m-2.843 2.843L9 14.9c.722-.703 4.001-3.1 5.686-1.415m2.814 2.843-.015.015m0 0 2.502-2.501a8 8 0 0 0 2.145-3.89l.318-1.402-1.402.318a8 8 0 0 0-3.89 2.145l-2.472 2.472m-11.272-.172c-1.339 2.117-1.85 3.806-1.192 4.465.586.586 1.987.246 3.778-.778m7.313-13.586c2.117-1.339 3.806-1.85 4.465-1.192.886.885-.345 3.634-2.854 6.778m-10.67 5A7.002 7.002 0 0 1 14 4.254"/> </g> <defs> <clipPath id="a"> <path fill="#ffffff" d="M0 0h24v24H0z"/> </clipPath> </defs> </g>

</svg>